HIERARCHY
ROOT mixamorig:Hips
{
	OFFSET 0.000000 201.639420 0.000000
	CHANNELS 6 Xposition Yposition Zposition Xrotation Yrotation Zrotation
	JOINT mixamorig:Spine
	{
		OFFSET 0.006200 19.524994 -2.481800
		CHANNELS 3 Xrotation Yrotation Zrotation
		JOINT mixamorig:Spine1
		{
			OFFSET -0.000900 22.835007 -2.825400
			CHANNELS 3 Xrotation Yrotation Zrotation
			JOINT mixamorig:Spine2
			{
				OFFSET -0.020600 26.552490 -3.193300
				CHANNELS 3 Xrotation Yrotation Zrotation
				JOINT mixamorig:Neck
				{
					OFFSET -0.060000 30.701813 1.352200
					CHANNELS 3 Xrotation Yrotation Zrotation
					JOINT mixamorig:Head
					{
						OFFSET -0.087200 22.547607 3.670900
						CHANNELS 3 Xrotation Yrotation Zrotation
						JOINT mixamorig:HeadTop_End
						{
							OFFSET -0.830600 40.355194 7.893500
							CHANNELS 3 Xrotation Yrotation Zrotation
							End Site
							{
								OFFSET 0.000000 30.592346 0.000000
							}
						}
						JOINT mixamorig:RightEye
						{
							OFFSET -6.302100 18.118591 16.197100
							CHANNELS 3 Xrotation Yrotation Zrotation
							End Site
							{
								OFFSET 0.000000 30.592346 0.000000
							}
						}
						JOINT mixamorig:LeftEye
						{
							OFFSET 6.741500 18.382690 16.401899
							CHANNELS 3 Xrotation Yrotation Zrotation
							End Site
							{
								OFFSET 0.000000 30.592346 0.000000
							}
						}
					}
				}
				JOINT mixamorig:LeftShoulder
				{
					OFFSET 11.924900 18.230499 1.425400
					CHANNELS 3 Xrotation Yrotation Zrotation
					JOINT mixamorig:LeftArm
					{
						OFFSET 25.435989 -0.697632 -5.229300
						CHANNELS 3 Xrotation Yrotation Zrotation
						JOINT mixamorig:LeftForeArm
						{
							OFFSET 54.684776 0.000000 0.000000
							CHANNELS 3 Xrotation Yrotation Zrotation
							JOINT mixamorig:LeftHand
							{
								OFFSET 55.098175 0.000000 0.000000
								CHANNELS 3 Xrotation Yrotation Zrotation
								JOINT mixamorig:LeftHandMiddle1
								{
									OFFSET 23.369751 0.000000 0.000000
									CHANNELS 3 Xrotation Yrotation Zrotation
									JOINT mixamorig:LeftHandMiddle2
									{
										OFFSET 6.378677 0.000000 0.000000
										CHANNELS 3 Xrotation Yrotation Zrotation
										JOINT mixamorig:LeftHandMiddle3
										{
											OFFSET 6.148331 0.000000 0.000000
											CHANNELS 3 Xrotation Yrotation Zrotation
											JOINT mixamorig:LeftHandMiddle4
											{
												OFFSET 6.582504 0.000000 0.000000
												CHANNELS 3 Xrotation Yrotation Zrotation
												End Site
												{
													OFFSET -1.168900 6.395691 1.028606
												}
											}
										}
									}
								}
								JOINT mixamorig:LeftHandThumb1
								{
									OFFSET 7.235672 -3.848206 5.434273
									CHANNELS 3 Xrotation Yrotation Zrotation
									JOINT mixamorig:LeftHandThumb2
									{
										OFFSET 6.568451 -3.792297 3.792300
										CHANNELS 3 Xrotation Yrotation Zrotation
										JOINT mixamorig:LeftHandThumb3
										{
											OFFSET 6.063080 -3.500519 3.500518
											CHANNELS 3 Xrotation Yrotation Zrotation
											JOINT mixamorig:LeftHandThumb4
											{
												OFFSET 4.793182 -2.767334 2.767349
												CHANNELS 3 Xrotation Yrotation Zrotation
												End Site
												{
													OFFSET 0.101639 6.054260 1.275483
												}
											}
										}
									}
								}
								JOINT mixamorig:LeftHandIndex1
								{
									OFFSET 23.101074 -0.309540 4.992809
									CHANNELS 3 Xrotation Yrotation Zrotation
									JOINT mixamorig:LeftHandIndex2
									{
										OFFSET 6.226883 0.000000 0.000000
										CHANNELS 3 Xrotation Yrotation Zrotation
										JOINT mixamorig:LeftHandIndex3
										{
											OFFSET 6.094330 0.000000 0.000000
											CHANNELS 3 Xrotation Yrotation Zrotation
											JOINT mixamorig:LeftHandIndex4
											{
												OFFSET 5.482605 0.000000 0.000000
												CHANNELS 3 Xrotation Yrotation Zrotation
												End Site
												{
													OFFSET -1.427902 5.233032 0.797164
												}
											}
										}
									}
								}
								JOINT mixamorig:LeftHandRing1
								{
									OFFSET 22.299240 0.021149 -3.964172
									CHANNELS 3 Xrotation Yrotation Zrotation
									JOINT mixamorig:LeftHandRing2
									{
										OFFSET 6.321869 0.000000 0.000000
										CHANNELS 3 Xrotation Yrotation Zrotation
										JOINT mixamorig:LeftHandRing3
										{
											OFFSET 5.899796 0.000000 0.000000
											CHANNELS 3 Xrotation Yrotation Zrotation
											JOINT mixamorig:LeftHandRing4
											{
												OFFSET 6.517899 0.000000 0.000000
												CHANNELS 3 Xrotation Yrotation Zrotation
												End Site
												{
													OFFSET -1.637299 6.232208 0.980890
												}
											}
										}
									}
								}
								JOINT mixamorig:LeftHandPinky1
								{
									OFFSET 20.463791 -0.302338 -8.562233
									CHANNELS 3 Xrotation Yrotation Zrotation
									JOINT mixamorig:LeftHandPinky2
									{
										OFFSET 6.908646 0.000000 0.000000
										CHANNELS 3 Xrotation Yrotation Zrotation
										JOINT mixamorig:LeftHandPinky3
										{
											OFFSET 4.622849 0.000000 0.000000
											CHANNELS 3 Xrotation Yrotation Zrotation
											JOINT mixamorig:LeftHandPinky4
											{
												OFFSET 5.216080 0.000000 0.000000
												CHANNELS 3 Xrotation Yrotation Zrotation
												End Site
												{
													OFFSET -0.606308 5.116241 0.814926
												}
											}
										}
									}
								}
							}
						}
					}
				}
				JOINT mixamorig:RightShoulder
				{
					OFFSET -12.001300 18.284088 1.348900
					CHANNELS 3 Xrotation Yrotation Zrotation
					JOINT mixamorig:RightArm
					{
						OFFSET -25.308500 -0.751312 -5.164599
						CHANNELS 3 Xrotation Yrotation Zrotation
						JOINT mixamorig:RightForeArm
						{
							OFFSET -54.684429 0.000000 0.000000
							CHANNELS 3 Xrotation Yrotation Zrotation
							JOINT mixamorig:RightHand
							{
								OFFSET -55.150291 0.000000 0.000000
								CHANNELS 3 Xrotation Yrotation Zrotation
								JOINT mixamorig:RightHandMiddle1
								{
									OFFSET -23.317566 0.000000 0.000000
									CHANNELS 3 Xrotation Yrotation Zrotation
									JOINT mixamorig:RightHandMiddle2
									{
										OFFSET -6.378403 0.000000 0.000000
										CHANNELS 3 Xrotation Yrotation Zrotation
										JOINT mixamorig:RightHandMiddle3
										{
											OFFSET -6.148193 0.000000 0.000000
											CHANNELS 3 Xrotation Yrotation Zrotation
											JOINT mixamorig:RightHandMiddle4
											{
												OFFSET -6.583389 0.000000 0.000000
												CHANNELS 3 Xrotation Yrotation Zrotation
												End Site
												{
													OFFSET 1.171692 6.395905 1.029786
												}
											}
										}
									}
								}
								JOINT mixamorig:RightHandThumb1
								{
									OFFSET -7.190521 -3.860474 5.435846
									CHANNELS 3 Xrotation Yrotation Zrotation
									JOINT mixamorig:RightHandThumb2
									{
										OFFSET -6.567429 -3.791718 3.791708
										CHANNELS 3 Xrotation Yrotation Zrotation
										JOINT mixamorig:RightHandThumb3
										{
											OFFSET -6.062469 -3.500153 3.500166
											CHANNELS 3 Xrotation Yrotation Zrotation
											JOINT mixamorig:RightHandThumb4
											{
												OFFSET -4.792618 -2.767029 2.767022
												CHANNELS 3 Xrotation Yrotation Zrotation
												End Site
												{
													OFFSET -0.100327 6.053253 1.276754
												}
											}
										}
									}
								}
								JOINT mixamorig:RightHandIndex1
								{
									OFFSET -23.048981 -0.310791 4.992554
									CHANNELS 3 Xrotation Yrotation Zrotation
									JOINT mixamorig:RightHandIndex2
									{
										OFFSET -6.227539 0.000000 0.000000
										CHANNELS 3 Xrotation Yrotation Zrotation
										JOINT mixamorig:RightHandIndex3
										{
											OFFSET -6.095047 0.000000 0.000000
											CHANNELS 3 Xrotation Yrotation Zrotation
											JOINT mixamorig:RightHandIndex4
											{
												OFFSET -5.484772 0.000000 0.000000
												CHANNELS 3 Xrotation Yrotation Zrotation
												End Site
												{
													OFFSET 1.420593 5.237305 0.797056
												}
											}
										}
									}
								}
								JOINT mixamorig:RightHandRing1
								{
									OFFSET -22.246323 0.020569 -3.963762
									CHANNELS 3 Xrotation Yrotation Zrotation
									JOINT mixamorig:RightHandRing2
									{
										OFFSET -6.322128 0.000000 0.000000
										CHANNELS 3 Xrotation Yrotation Zrotation
										JOINT mixamorig:RightHandRing3
										{
											OFFSET -5.900024 0.000000 0.000000
											CHANNELS 3 Xrotation Yrotation Zrotation
											JOINT mixamorig:RightHandRing4
											{
												OFFSET -6.518356 0.000000 0.000000
												CHANNELS 3 Xrotation Yrotation Zrotation
												End Site
												{
													OFFSET 1.636398 6.232697 0.982186
												}
											}
										}
									}
								}
								JOINT mixamorig:RightHandPinky1
								{
									OFFSET -20.411011 -0.303314 -8.561701
									CHANNELS 3 Xrotation Yrotation Zrotation
									JOINT mixamorig:RightHandPinky2
									{
										OFFSET -6.907349 0.000000 0.000000
										CHANNELS 3 Xrotation Yrotation Zrotation
										JOINT mixamorig:RightHandPinky3
										{
											OFFSET -4.623840 0.000000 0.000000
											CHANNELS 3 Xrotation Yrotation Zrotation
											JOINT mixamorig:RightHandPinky4
											{
												OFFSET -5.218353 0.000000 0.000000
												CHANNELS 3 Xrotation Yrotation Zrotation
												End Site
												{
													OFFSET 0.602097 5.118835 0.816273
												}
											}
										}
									}
								}
							}
						}
					}
				}
			}
		}
	}
	JOINT mixamorig:LeftUpLeg
	{
		OFFSET 18.168400 -13.561905 -0.039000
		CHANNELS 3 Xrotation Yrotation Zrotation
		JOINT mixamorig:LeftLeg
		{
			OFFSET 0.577358 -80.825211 -3.695000
			CHANNELS 3 Xrotation Yrotation Zrotation
			JOINT mixamorig:LeftFoot
			{
				OFFSET -0.577356 -83.370262 -6.520700
				CHANNELS 3 Xrotation Yrotation Zrotation
				JOINT mixamorig:LeftToeBase
				{
					OFFSET 0.750401 -20.798306 25.135401
					CHANNELS 3 Xrotation Yrotation Zrotation
					JOINT mixamorig:LeftToe_End
					{
						OFFSET -0.000500 0.001200 19.917799
						CHANNELS 3 Xrotation Yrotation Zrotation
						End Site
						{
							OFFSET 0.000000 19.917805 0.000000
						}
					}
				}
			}
		}
	}
	JOINT mixamorig:RightUpLeg
	{
		OFFSET -18.162500 -13.585098 -0.041000
		CHANNELS 3 Xrotation Yrotation Zrotation
		JOINT mixamorig:RightLeg
		{
			OFFSET -0.595024 -80.945297 -3.631900
			CHANNELS 3 Xrotation Yrotation Zrotation
			JOINT mixamorig:RightFoot
			{
				OFFSET 0.595024 -83.218193 -6.561200
				CHANNELS 3 Xrotation Yrotation Zrotation
				JOINT mixamorig:RightToeBase
				{
					OFFSET -0.753601 -20.807106 25.115000
					CHANNELS 3 Xrotation Yrotation Zrotation
					JOINT mixamorig:RightToe_End
					{
						OFFSET 0.000299 0.001700 19.918200
						CHANNELS 3 Xrotation Yrotation Zrotation
						End Site
						{
							OFFSET 0.000000 19.918203 0.000000
						}
					}
				}
			}
		}
	}
}
MOTION
Frames: 4
Frame Time: 0.033333
-3.431042 196.302216 2.017693 -5.911524 -23.305871 -10.685369 3.113385 0.377756 1.600624 0.624100 -1.448027 0.161187 0.605453 -1.404748 0.150002 11.401386 2.668035 -1.002873 -4.121039 13.913158 2.761141 -0.000000 -0.000001 -0.000000 -0.000000 -0.000001 -0.000000 -0.000000 -0.000001 -0.000000 0.672556 -18.107089 -15.410578 11.895746 -8.200806 -59.833523 -0.000008 -3.636572 -0.000001 -34.453653 -1.341786 -5.201673 0.098540 3.394333 -17.997967 0.243469 1.672973 -16.559599 0.273889 1.771993 -17.571338 0.000002 0.000003 0.000003 -3.109038 -3.079785 5.970377 9.773514 21.194400 18.225670 -14.187239 2.522854 8.951349 0.000004 0.000000 0.000000 -0.035043 -1.003324 -8.046733 0.263380 1.738425 -17.227682 0.055567 0.805859 -7.889223 0.000002 0.000001 0.000001 0.121757 3.663126 -22.461412 0.316806 1.902168 -18.910173 0.223877 1.605611 -15.874512 0.000002 -0.000002 0.000000 -0.606611 3.906170 -21.513274 0.080926 0.971438 -9.524236 0.066393 0.880433 -8.624807 0.000000 0.000003 -0.000001 2.070621 10.010618 9.217404 -26.674855 -18.707835 46.877473 0.000007 39.209336 0.000001 -59.534920 14.751498 -1.914035 -1.708893 1.886489 19.713080 0.259783 -1.535170 19.207245 0.267651 -1.557565 19.499130 -0.000001 -0.000002 0.000000 -11.549677 19.322308 -6.482709 3.375874 -13.855032 -19.387034 -15.615964 -2.662921 -12.432741 -0.000004 0.000000 0.000003 0.014675 7.779952 10.426396 0.358146 -1.792620 22.593880 0.146195 -1.159004 14.379879 -0.000001 0.000000 -0.000003 -0.130375 -2.708028 21.427757 0.163265 -1.223509 15.199094 0.105068 -0.984651 12.180028 0.000001 0.000002 -0.000001 0.612959 -5.233495 28.349055 0.055258 -0.716120 8.826293 0.115277 -1.030861 12.760822 -0.000003 0.000001 -0.000003 -16.627788 12.773124 20.169489 29.301846 9.270604 6.186663 -6.166909 10.466857 -12.740418 -4.887935 0.000003 0.000001 -0.000000 0.000000 -0.000000 -4.946862 -8.697851 5.633638 18.645021 4.161300 3.628078 -7.442645 0.492403 -2.999336 -8.068059 0.000000 0.000001 0.000000 0.000000 0.000000 
-3.512596 196.345978 1.749960 -5.834011 -22.890252 -10.508457 3.157587 0.430158 1.604434 0.686220 -1.363243 0.178159 0.667554 -1.320378 0.168335 11.227625 2.623037 -1.089374 -4.269597 13.665626 2.637913 -0.000000 0.000001 0.000000 -0.000000 0.000001 0.000000 -0.000000 0.000001 0.000000 0.667147 -17.784395 -15.437882 11.321549 -8.907923 -60.071855 0.000008 -3.312471 -0.000009 -34.655772 -1.498282 -5.525188 0.164335 3.637882 -19.154965 0.235701 1.646619 -16.291239 0.265721 1.745996 -17.305124 -0.000000 -0.000001 -0.000001 -3.508956 -4.071451 6.316120 9.583343 20.778868 18.328864 -14.254682 2.338574 8.935403 -0.000001 0.000000 0.000001 -0.042396 -0.797806 -9.204681 0.261625 1.732814 -17.170378 0.054776 0.800096 -7.832487 -0.000004 -0.000000 0.000001 0.127440 3.757197 -24.199599 0.296031 1.840433 -18.273881 0.206631 1.543698 -15.246915 0.000002 0.000001 0.000002 -0.720930 3.529041 -18.613741 0.037570 0.663201 -6.485912 0.027884 0.571571 -5.586594 -0.000002 -0.000000 0.000002 1.947380 10.621794 10.133052 -20.098621 -14.943629 50.083742 0.000006 32.285164 -0.000014 -58.742919 14.168300 -1.260031 -1.130695 0.602680 18.184945 0.244028 -1.489200 18.610461 0.258384 -1.531151 19.154958 0.000002 -0.000001 0.000001 -11.045415 16.631441 -4.581408 3.383766 -13.851630 -19.386995 -15.738023 -2.406928 -12.350200 0.000000 -0.000001 -0.000003 0.450259 6.610738 8.440239 0.351679 -1.777030 22.386558 0.137604 -1.124880 13.947651 0.000001 0.000002 -0.000006 -0.151403 -2.669840 21.656640 0.185187 -1.301507 16.194295 0.122750 -1.063308 13.169949 0.000001 0.000000 0.000001 0.757320 -5.260175 29.382087 0.076266 -0.840182 10.370952 0.120369 -1.053132 13.041668 0.000000 0.000001 -0.000002 -16.732003 12.786170 20.088537 29.061225 9.244152 6.168884 -6.021060 10.038600 -12.644097 -4.878358 -0.000004 0.000001 0.000000 -0.000000 -0.000000 -5.042949 -8.732895 5.594453 18.650805 4.162540 3.602457 -7.458966 0.099017 -3.052341 -8.053912 -0.000007 -0.000000 -0.000000 0.000002 0.000001 
-3.612888 196.394470 1.488002 -5.730533 -22.367539 -10.306580 3.207874 0.486178 1.614466 0.755844 -1.273735 0.200451 0.736921 -1.231491 0.192153 11.022751 2.562739 -1.184004 -4.466963 13.367891 2.431310 0.000000 0.000001 -0.000000 0.000000 0.000001 -0.000000 0.000000 0.000001 -0.000000 0.664654 -17.523631 -15.445213 10.708931 -9.623011 -60.391296 -0.000005 -3.099678 0.000002 -35.047599 -1.872085 -5.761270 0.207004 3.792460 -20.190551 0.230579 1.628989 -16.112090 0.260299 1.728540 -17.126566 -0.000001 0.000002 -0.000000 -3.888920 -5.068541 6.689055 9.415912 20.408749 18.418966 -14.332126 2.126615 8.916910 -0.000002 0.000000 0.000000 -0.043636 -0.604962 -10.362974 0.260049 1.727704 -17.118182 0.054051 0.794850 -7.780769 -0.000000 0.000001 -0.000000 0.115814 3.802534 -25.669610 0.284439 1.804948 -17.909282 0.197217 1.508750 -14.893509 -0.000000 0.000000 0.000001 -0.763897 3.258146 -16.281264 0.013966 0.404731 -3.952624 0.008329 0.312753 -3.053377 -0.000001 0.000000 0.000002 1.823669 11.344643 11.024153 -13.261920 -8.638472 52.136620 -0.000013 23.551068 0.000028 -58.177741 13.553385 -0.141079 -0.595456 -0.439018 14.848435 0.217885 -1.409236 17.577249 0.237548 -1.469828 18.359675 0.000005 0.000001 -0.000000 -10.267560 13.711575 -2.565792 3.395382 -13.849155 -19.383558 -15.831648 -2.214914 -12.288114 -0.000001 0.000000 0.000000 1.222485 6.150677 2.819183 0.313772 -1.682168 21.131422 0.110415 -1.009208 12.488747 0.000003 0.000004 -0.000004 0.001166 -2.983818 20.187111 0.199782 -1.350807 16.825708 0.134483 -1.112248 13.787953 -0.000003 0.000001 0.000005 0.976952 -5.429010 28.635479 0.093564 -0.929867 11.492664 0.119931 -1.051161 13.016888 0.000004 0.000001 -0.000002 -16.876202 12.800118 20.009903 28.805930 9.214833 6.145151 -5.861259 9.488684 -12.543056 -4.873596 -0.000002 -0.000003 -0.000000 -0.000000 0.000000 -5.135951 -8.767201 5.554043 18.635389 4.166091 3.578023 -7.477622 -0.399980 -3.109203 -8.031950 0.000004 0.000001 -0.000001 -0.000001 0.000000 
-3.727943 196.452377 1.237407 -5.604135 -21.720037 -10.072076 3.259926 0.538537 1.629465 0.829041 -1.191215 0.229085 0.809787 -1.149689 0.222192 10.801079 2.486822 -1.269009 -4.658242 13.013935 2.171928 0.000001 -0.000001 0.000000 0.000001 -0.000001 0.000000 0.000001 -0.000001 0.000000 0.666707 -17.302126 -15.416828 10.119968 -10.407788 -60.771472 -0.000001 -3.017210 0.000002 -35.512725 -2.595094 -5.848267 0.196620 3.779510 -20.643815 0.230096 1.627311 -16.094885 0.259740 1.726718 -17.108012 0.000002 0.000001 -0.000004 -4.187038 -5.900539 7.025445 9.250316 20.038844 18.508430 -14.390358 1.967167 8.902802 0.000001 0.000001 0.000001 -0.075277 -0.557563 -10.885244 0.259198 1.724946 -17.089994 0.053658 0.791984 -7.752560 -0.000002 0.000001 -0.000003 0.101499 3.810293 -26.414657 0.283169 1.801021 -17.868982 0.196357 1.505516 -14.860665 -0.000001 -0.000002 -0.000003 -0.836204 3.072912 -15.245734 0.006812 0.282798 -2.760737 0.003101 0.190735 -1.861523 -0.000001 0.000000 0.000002 1.692197 12.171566 11.913493 -6.413092 -1.315369 53.523463 -0.000003 15.494183 0.000003 -56.532475 12.574817 1.650885 -0.238678 -1.235709 10.953539 0.191367 -1.322677 16.465114 0.214903 -1.399795 17.455575 0.000002 0.000000 -0.000002 -9.254729 11.245264 -1.314474 3.416678 -13.846275 -19.370913 -15.843640 -2.202976 -12.283884 0.000000 -0.000002 0.000001 1.822096 5.820391 -2.656484 0.267115 -1.556027 19.479006 0.080543 -0.863397 10.661002 0.000001 -0.000002 0.000000 0.140440 -3.308744 18.163717 0.200444 -1.352998 16.853862 0.134830 -1.113665 13.805845 0.000001 0.000001 0.000000 1.015612 -5.413501 26.860714 0.107656 -0.996591 12.329982 0.117283 -1.039679 12.872152 -0.000002 -0.000003 -0.000002 -17.052961 12.818038 19.917784 28.532779 9.186859 6.116631 -5.716122 8.805882 -12.425834 -4.876636 -0.000003 -0.000001 -0.000001 -0.000000 -0.000000 -5.213947 -8.818152 5.495486 18.590646 4.167071 3.566440 -7.502470 -0.995212 -3.174820 -8.004457 0.000000 -0.000001 -0.000000 -0.000002 0.000000 
